<svg xmlns="http://www.w3.org/2000/svg" xmlns:xlink="http://www.w3.org/1999/xlink" width="500" zoomAndPan="magnify" viewBox="0 0 375 127.500001" height="170" preserveAspectRatio="xMidYMid meet" version="1.0"><defs><g/><clipPath id="0fed81c13f"><path d="M 306 17.082031 L 361.367188 17.082031 L 361.367188 73 L 306 73 Z M 306 17.082031 " clip-rule="nonzero"/></clipPath></defs><path fill="#2b2b2b" d="M 310.816406 75.058594 L 303.585938 67.824219 L 297.378906 74.03125 L 290.085938 66.734375 C 290.085938 66.734375 275.855469 80.011719 274.121094 84.125 C 272.203125 88.660156 268.730469 102.0625 272.652344 105.988281 C 276.578125 109.914062 289.980469 106.4375 294.519531 104.523438 C 298.632812 102.785156 311.90625 88.558594 311.90625 88.558594 L 304.613281 81.261719 L 310.816406 75.058594 " fill-opacity="1" fill-rule="nonzero"/><g clip-path="url(#0fed81c13f)"><path fill="#2b2b2b" d="M 349.984375 36.265625 C 347.917969 36.210938 345.679688 35.566406 344.378906 34.265625 C 343.078125 32.960938 342.429688 30.722656 342.375 28.65625 C 342.332031 27.0625 342.699219 25.839844 344.050781 24.488281 L 354.152344 34.59375 C 352.800781 35.945312 351.578125 36.308594 349.984375 36.265625 Z M 360.847656 33.582031 L 345.058594 17.792969 C 344.421875 17.15625 343.433594 17.082031 342.714844 17.570312 C 342.507812 17.796875 342.308594 18.023438 342.113281 18.246094 C 336.75 24.460938 336.339844 30.089844 338.621094 34.746094 L 306.398438 66.96875 L 311.675781 72.246094 L 343.898438 40.023438 C 348.554688 42.304688 354.183594 41.890625 360.394531 36.53125 C 360.621094 36.335938 360.847656 36.132812 361.070312 35.925781 C 361.5625 35.207031 361.488281 34.21875 360.847656 33.582031 " fill-opacity="1" fill-rule="nonzero"/></g><g fill="#2b2b2b" fill-opacity="1"><g transform="translate(20.126283, 82.816217)"><g><path d="M 8.515625 0 L 0.296875 -36.609375 L 12.84375 -36.609375 L 16.6875 -13.625 L 17.171875 -9.546875 L 17.265625 -9.546875 L 17.859375 -13.625 L 21.65625 -36.609375 L 34.59375 -36.609375 L 38.328125 -13.625 L 38.921875 -9.546875 L 39.015625 -9.546875 L 39.515625 -13.625 L 43.34375 -36.609375 L 55.890625 -36.609375 L 47.671875 0 L 32.125 0 L 28.640625 -22.234375 L 28.140625 -25.734375 L 28.046875 -25.734375 L 27.546875 -22.234375 L 24.109375 0 Z M 8.515625 0 "/></g></g></g><g fill="#2b2b2b" fill-opacity="1"><g transform="translate(76.310386, 82.816217)"><g><path d="M 6.984375 2.515625 C 8.984375 2.148438 10.566406 1.6875 11.734375 1.125 C 12.898438 0.570312 13.695312 -0.273438 14.125 -1.421875 L 14.21875 -1.671875 L 9.640625 -1.671875 L 0.140625 -29.234375 L 12.5 -29.234375 L 16.6875 -12.453125 L 16.921875 -10.625 L 17.03125 -10.625 L 17.3125 -12.453125 L 21.453125 -29.234375 L 33.796875 -29.234375 L 24.65625 -2.015625 C 23.5 1.492188 21.65625 4.210938 19.125 6.140625 C 16.601562 8.078125 13.050781 9.242188 8.46875 9.640625 Z M 6.984375 2.515625 "/></g></g></g><g fill="#2b2b2b" fill-opacity="1"><g transform="translate(109.273016, 82.816217)"><g><path d="M 15.984375 9.6875 C 13.691406 9.6875 11.59375 9.554688 9.6875 9.296875 C 7.789062 9.035156 6.019531 8.675781 4.375 8.21875 L 4.828125 0.640625 C 6.066406 1.035156 7.5625 1.335938 9.3125 1.546875 C 11.070312 1.765625 12.660156 1.875 14.078125 1.875 C 16.535156 1.875 18.363281 1.429688 19.5625 0.546875 C 20.757812 -0.335938 21.390625 -1.601562 21.453125 -3.25 L 21.453125 -3.34375 L 21.59375 -6.390625 L 21.453125 -6.390625 C 20.566406 -4.691406 19.335938 -3.398438 17.765625 -2.515625 C 16.191406 -1.628906 14.40625 -1.1875 12.40625 -1.1875 C 8.726562 -1.1875 5.960938 -2.414062 4.109375 -4.875 C 2.253906 -7.332031 1.328125 -10.820312 1.328125 -15.34375 L 1.328125 -16.046875 C 1.328125 -25.453125 5 -30.15625 12.34375 -30.15625 C 14.3125 -30.15625 16.113281 -29.695312 17.75 -28.78125 C 19.394531 -27.863281 20.644531 -26.4375 21.5 -24.5 L 21.65625 -24.5 L 21.359375 -27.40625 L 21.359375 -29.234375 L 32.96875 -29.234375 L 32.96875 -5.40625 C 32.96875 -0.257812 31.5625 3.539062 28.75 6 C 25.945312 8.457031 21.691406 9.6875 15.984375 9.6875 Z M 12.984375 -14.015625 C 12.984375 -12.710938 13.269531 -11.59375 13.84375 -10.65625 C 14.425781 -9.71875 15.503906 -9.25 17.078125 -9.25 C 18.617188 -9.25 19.722656 -9.722656 20.390625 -10.671875 C 21.066406 -11.628906 21.40625 -12.765625 21.40625 -14.078125 L 21.40625 -16.625 C 21.40625 -17.875 21.078125 -19.023438 20.421875 -20.078125 C 19.765625 -21.128906 18.648438 -21.65625 17.078125 -21.65625 C 16.054688 -21.65625 15.242188 -21.40625 14.640625 -20.90625 C 14.035156 -20.414062 13.609375 -19.785156 13.359375 -19.015625 C 13.109375 -18.242188 12.984375 -17.414062 12.984375 -16.53125 Z M 12.984375 -14.015625 "/></g></g></g><g fill="#2b2b2b" fill-opacity="1"><g transform="translate(144.646372, 82.816217)"><g><path d="M 2.40625 0 L 2.40625 -29.234375 L 14.015625 -29.234375 L 14.015625 -27.203125 L 13.671875 -24.109375 L 13.734375 -24.109375 C 14.453125 -26.015625 15.523438 -27.5 16.953125 -28.5625 C 18.378906 -29.625 20.039062 -30.15625 21.9375 -30.15625 C 23.09375 -30.15625 24.113281 -30.023438 25 -29.765625 L 25 -20.265625 C 24.40625 -20.398438 23.8125 -20.488281 23.21875 -20.53125 C 22.632812 -20.582031 22.03125 -20.609375 21.40625 -20.609375 C 19.070312 -20.609375 17.253906 -19.953125 15.953125 -18.640625 C 14.660156 -17.335938 14.015625 -15.375 14.015625 -12.75 L 14.015625 0 Z M 2.40625 0 "/></g></g></g><g fill="#2b2b2b" fill-opacity="1"><g transform="translate(170.08174, 82.816217)"><g><path d="M 0.984375 0 L 0.984375 -7.484375 L 14.21875 -21.015625 L 1.921875 -21.015625 L 1.921875 -29.234375 L 28.1875 -29.234375 L 28.1875 -21.40625 L 14.953125 -8.265625 L 28.484375 -8.265625 L 28.484375 0 Z M 0.984375 0 "/></g></g></g><g fill="#2b2b2b" fill-opacity="1"><g transform="translate(199.05935, 82.816217)"><g><path d="M 16.78125 0.9375 C 11.757812 0.9375 7.925781 -0.378906 5.28125 -3.015625 C 2.644531 -5.660156 1.328125 -9.3125 1.328125 -13.96875 L 1.328125 -15.5 C 1.328125 -20.125 2.65625 -23.722656 5.3125 -26.296875 C 7.96875 -28.867188 11.820312 -30.15625 16.875 -30.15625 C 21.789062 -30.15625 25.5625 -28.945312 28.1875 -26.53125 C 30.8125 -24.125 32.125 -20.578125 32.125 -15.890625 L 32.125 -12.40625 L 12.84375 -12.40625 C 12.90625 -10.59375 13.269531 -9.257812 13.9375 -8.40625 C 14.613281 -7.5625 15.609375 -7.140625 16.921875 -7.140625 C 18.234375 -7.140625 19.203125 -7.429688 19.828125 -8.015625 C 20.453125 -8.609375 20.828125 -9.429688 20.953125 -10.484375 L 32.03125 -10.484375 C 31.863281 -8.285156 31.207031 -6.320312 30.0625 -4.59375 C 28.914062 -2.875 27.242188 -1.519531 25.046875 -0.53125 C 22.847656 0.445312 20.09375 0.9375 16.78125 0.9375 Z M 12.84375 -17.46875 L 21.0625 -17.46875 C 21.03125 -18.945312 20.691406 -20.101562 20.046875 -20.9375 C 19.410156 -21.769531 18.367188 -22.1875 16.921875 -22.1875 C 15.609375 -22.1875 14.625 -21.804688 13.96875 -21.046875 C 13.3125 -20.296875 12.9375 -19.101562 12.84375 -17.46875 Z M 12.84375 -17.46875 "/></g></g></g><g fill="#2b2b2b" fill-opacity="1"><g transform="translate(232.612393, 82.816217)"><g><path d="M 22.984375 0.9375 C 21.078125 0.9375 19.300781 0.46875 17.65625 -0.46875 C 16.019531 -1.40625 14.757812 -2.835938 13.875 -4.765625 L 13.78125 -4.765625 L 14.015625 -1.828125 L 14.015625 0 L 2.40625 0 L 2.40625 -37.6875 L 14.015625 -37.6875 L 14.015625 -27.609375 L 13.78125 -24.5 L 13.921875 -24.5 C 14.835938 -26.4375 16.097656 -27.863281 17.703125 -28.78125 C 19.316406 -29.695312 21.078125 -30.15625 22.984375 -30.15625 C 26.679688 -30.15625 29.429688 -28.898438 31.234375 -26.390625 C 33.046875 -23.890625 33.953125 -20.273438 33.953125 -15.546875 L 33.953125 -13.921875 C 33.953125 -9.066406 33.046875 -5.375 31.234375 -2.84375 C 29.429688 -0.320312 26.679688 0.9375 22.984375 0.9375 Z M 13.96875 -12.6875 C 13.96875 -11.28125 14.3125 -10.082031 15 -9.09375 C 15.695312 -8.113281 16.78125 -7.625 18.25 -7.625 C 19.820312 -7.625 20.894531 -8.128906 21.46875 -9.140625 C 22.050781 -10.160156 22.34375 -11.425781 22.34375 -12.9375 L 22.34375 -16.140625 C 22.34375 -17.085938 22.21875 -17.976562 21.96875 -18.8125 C 21.71875 -19.65625 21.296875 -20.335938 20.703125 -20.859375 C 20.117188 -21.390625 19.300781 -21.65625 18.25 -21.65625 C 16.738281 -21.65625 15.644531 -21.132812 14.96875 -20.09375 C 14.300781 -19.0625 13.96875 -17.84375 13.96875 -16.4375 Z M 13.96875 -12.6875 "/></g></g></g></svg>